<?xml version="1.0" encoding="UTF-8" standalone="no"?>
<svg
   xmlns:dc="http://purl.org/dc/elements/1.1/"
   xmlns:cc="http://creativecommons.org/ns#"
   xmlns:rdf="http://www.w3.org/1999/02/22-rdf-syntax-ns#"
   xmlns:svg="http://www.w3.org/2000/svg"
   xmlns="http://www.w3.org/2000/svg"
   xmlns:sodipodi="http://sodipodi.sourceforge.net/DTD/sodipodi-0.dtd"
   xmlns:inkscape="http://www.inkscape.org/namespaces/inkscape"
   inkscape:version="1.0 (4035a4fb49, 2020-05-01)"
   sodipodi:docname="logo.svg"
   id="svg414"
   version="1.1"
   fill="none"
   viewBox="0 0 755.90552 303.96111"
   height="80.423042mm"
   width="200mm">
  <metadata
     id="metadata418">
    <rdf:RDF>
      <cc:Work
         rdf:about="">
        <dc:format>image/svg+xml</dc:format>
        <dc:type
           rdf:resource="http://purl.org/dc/dcmitype/StillImage" />
        <dc:title></dc:title>
      </cc:Work>
    </rdf:RDF>
  </metadata>
  <sodipodi:namedview
     fit-margin-bottom="0"
     fit-margin-right="0"
     fit-margin-left="0"
     fit-margin-top="0"
     inkscape:current-layer="svg414"
     inkscape:window-maximized="1"
     inkscape:window-y="45"
     inkscape:window-x="0"
     inkscape:cy="309.70059"
     inkscape:cx="358.45277"
     inkscape:zoom="0.74132163"
     units="mm"
     showgrid="false"
     id="namedview416"
     inkscape:window-height="1006"
     inkscape:window-width="1920"
     inkscape:pageshadow="2"
     inkscape:pageopacity="0"
     guidetolerance="10"
     gridtolerance="10"
     objecttolerance="10"
     borderopacity="1"
     bordercolor="#666666"
     pagecolor="#ffffff"
     inkscape:document-rotation="0" />
  <g
     transform="scale(1.4275836)"
     id="g439">
    <path
       d="m 529.5,101.42 c -37,-22.0002 -62.5,-1 -74.5,10.5 5.667,8.361 19.6,26.426 30,31.792 19.179,-13.416 29.666,-33.722 44.5,-42.292 z"
       fill="#7ac143"
       id="path365" />
    <path
       d="m 402,149.711 c 13.53,4.974 28.548,7.373 44.5,6.709 16.355,-0.682 28.588,-5.775 38.5,-12.708 -10.4,-5.366 -24.333,-23.431 -30,-31.792 -14.5,23.5 -34,41.5 -53,37.791 z"
       fill="#00a78e"
       id="path367" />
    <path
       d="M 455,111.92 C 433.898,81.9389 409.484,62.0577 384,51.2877 369.2,61.582 353.167,88.9984 347,101.42 c 11.527,22.414 30.904,39.434 55,48.291 19,3.709 38.5,-14.291 53,-37.791 z"
       fill="#00bce4"
       id="path369" />
    <path
       d="M 281,54.7824 C 309.5,44.6155 330.5,77.9198 347,101.42 353.167,88.9984 369.2,61.582 384,51.2877 349.788,36.8288 313.647,38.791 281,54.7824 Z"
       fill="#7d3f98"
       id="path371" />
    <path
       d="m 228.5,206.92 c 78,-25 102.5,-79 118.5,-105.5 C 330.5,77.9197 309.5,44.6154 281,54.7824 233.5,81.4197 211.5,112.92 190.5,161.92 c 10,14 22,36.739 38,45 z"
       fill="#d20962"
       id="path373" />
    <path
       d="m 132.5,200.92 c 14.383,7.466 29.319,11.646 55,12 15.5,0 28.731,-2.31 41,-6 -16,-8.261 -28,-31 -38,-45 -8.5,12.5 -23,42.197 -58,39 z"
       fill="#f47721"
       id="path375" />
    <path
       d="m 190.5,161.92 c -14.8,-26.4 -36,-42 -43,-47.5 -21.5,9.5 -61.5,16.5 -87,-1.539 30.5,26.539 28.5,67.539 72,88.039 35,3.197 49.5,-26.5 58,-39 z"
       fill="#7ac143"
       id="path377" />
    <path
       d="M 105,74.4198 C 94.6667,86.5608 86,101.92 60.5,112.881 c 25.5,18.039 65.5,11.039 87,1.539 4.37,-1.516 8.521,-3.505 12.5,-5.868 -18,3.868 -46.833,-21.8774 -55,-34.1322 z"
       fill="#00bce4"
       id="path379" />
    <path
       d="m 278.5,25.4198 c -99,-51.5001 -142,-19.50003 -173.5,49 8.167,12.2547 37,38.0002 55,34.1322 40.645,-24.1321 63.395,-87.2309 118.5,-83.1322 z"
       fill="#00a78e"
       id="path381" />
    <path
       d="M 105,74.4198 C 65.8134,16.9649 20.5981,28.0527 0,35.6125 33.991,51.9539 31.4304,86.743 60.5,112.881 86,101.92 94.6667,86.5608 105,74.4198 Z"
       fill="#7d3f98"
       id="path383" />
    <g
       filter="url(#filter0_d)"
       id="g393">
      <text
         fill="#ffffff"
         xml:space="preserve"
         style="white-space:pre"
         font-family="'Orange Blossom'"
         font-size="92px"
         letter-spacing="0em"
         id="text387"><tspan
           x="75"
           y="158.15199"
           id="tspan385">Albondiguitas</tspan></text>
      <text
         stroke="#ffffff"
         stroke-width="10"
         stroke-linejoin="round"
         xml:space="preserve"
         style="white-space:pre"
         font-family="'Orange Blossom'"
         font-size="92px"
         letter-spacing="0em"
         id="text391"><tspan
           x="75"
           y="158.15199"
           id="tspan389">Albondiguitas</tspan></text>
    </g>
    <text
       fill="#7c003e"
       xml:space="preserve"
       style="white-space:pre"
       font-family="'Orange Blossom'"
       font-size="92px"
       letter-spacing="0em"
       id="text397"><tspan
         x="75"
         y="158.15199"
         id="tspan395">Albondiguitas</tspan></text>
  </g>
  <defs
     id="defs412">
    <filter
       color-interpolation-filters="sRGB"
       filterUnits="userSpaceOnUse"
       height="157.76801"
       width="407.25699"
       y="52.136002"
       x="66.288002"
       id="filter0_d">
      <feFlood
         id="feFlood399"
         result="BackgroundImageFix"
         flood-opacity="0" />
      <feColorMatrix
         id="feColorMatrix401"
         values="0 0 0 0 0 0 0 0 0 0 0 0 0 0 0 0 0 0 127 0"
         type="matrix"
         in="SourceAlpha" />
      <feOffset
         id="feOffset403"
         dy="4"
         dx="2" />
      <feColorMatrix
         id="feColorMatrix405"
         values="0 0 0 0 0 0 0 0 0 0 0 0 0 0 0 0 0 0 0.5 0"
         type="matrix" />
      <feBlend
         id="feBlend407"
         result="effect1_dropShadow"
         in2="BackgroundImageFix"
         mode="normal" />
      <feBlend
         id="feBlend409"
         result="shape"
         in2="effect1_dropShadow"
         in="SourceGraphic"
         mode="normal" />
    </filter>
  </defs>
</svg>
